<?xml version="1.0" standalone="no"?>
<!DOCTYPE svg PUBLIC "-//W3C//DTD SVG 20010904//EN"
 "http://www.w3.org/TR/2001/REC-SVG-20010904/DTD/svg10.dtd">
<svg version="1.0" xmlns="http://www.w3.org/2000/svg"
 width="4187.000000pt" height="1072.000000pt" viewBox="0 0 4187.000000 1072.000000"
 preserveAspectRatio="xMidYMid meet">

<g transform="translate(0.000000,1072.000000) scale(0.100000,-0.100000)"
fill="#ffffff" stroke="none">
<path d="M0 6832 c0 -2139 3 -4551 7 -5360 l6 -1472 20926 2 20926 3 3 311 2
311 -2450 2274 -2450 2274 412 411 c227 226 1330 1323 2451 2439 l2037 2027 0
327 0 328 -7502 6 c-4126 4 -13546 7 -20935 7 l-13433 0 0 -3888z m41470 3439
c0 -19 -791 -810 -3613 -3617 l-1497 -1489 47 -45 c27 -25 1173 -1090 2548
-2365 l2500 -2320 -10420 -6 c-5731 -3 -12259 -3 -14507 0 l-4088 4 0 4929 0
4928 14515 0 c14142 0 14515 0 14515 -19z m-38660 -2165 c345 -68 606 -205
858 -450 311 -302 528 -714 622 -1176 55 -273 55 -276 55 -1130 0 -854 0 -857
-55 -1130 -103 -510 -363 -966 -720 -1264 -226 -188 -481 -306 -769 -355 -119
-20 -156 -21 -987 -21 l-864 0 0 2775 0 2776 888 -4 c782 -3 897 -6 972 -21z
m5070 -411 l0 -435 -970 0 -970 0 0 -690 0 -690 820 0 820 0 0 -435 0 -435
-820 0 -820 0 0 -785 0 -785 975 0 975 0 0 -430 0 -430 -1420 0 -1420 0 0
2775 0 2775 1415 0 1415 0 0 -435z m1185 408 c89 -355 954 -4053 973 -4160 15
-84 30 -153 33 -153 3 0 15 57 27 128 12 70 239 1046 504 2169 l483 2043 473
0 c259 0 472 -1 472 -2 0 -2 -337 -1249 -749 -2773 l-749 -2770 -460 -3 c-432
-2 -461 -1 -466 15 -14 45 -1478 5481 -1483 5506 l-5 27 470 0 470 0 7 -27z"/>
<path d="M13008 8124 c-5 -4 -8 -1253 -8 -2776 l0 -2768 908 0 c553 0 952 4
1022 11 323 29 606 122 830 272 98 65 263 231 330 331 178 266 262 593 262
1016 1 259 -35 452 -117 643 -125 291 -309 469 -581 561 l-68 22 58 34 c263
150 430 407 507 780 26 124 37 442 20 590 -29 258 -107 482 -231 665 -184 271
-505 470 -902 559 -247 55 -296 58 -1193 63 -456 3 -833 1 -837 -3z m1730
-1023 c112 -33 190 -77 257 -145 68 -68 105 -136 137 -254 28 -105 31 -356 5
-451 -73 -267 -258 -401 -592 -431 -60 -5 -201 -10 -312 -10 l-203 0 0 661 0
661 318 -4 c290 -4 323 -7 390 -27z m118 -2156 c190 -33 320 -126 394 -280 59
-124 71 -186 77 -385 6 -211 -7 -294 -67 -416 -66 -136 -185 -227 -351 -270
-53 -14 -132 -18 -471 -21 l-408 -5 0 696 0 696 369 0 c285 0 389 -3 457 -15z"/>
<path d="M18050 8108 c-11 -26 -1430 -5502 -1430 -5518 0 -7 167 -9 537 -8
l537 3 127 535 126 535 655 3 655 2 35 -147 c20 -82 78 -325 129 -540 l94
-393 538 0 539 0 -7 28 c-3 15 -327 1262 -719 2772 l-713 2745 -547 3 -546 2
-10 -22z m565 -1760 c33 -135 405 -1693 405 -1695 0 -2 -187 -3 -415 -3 -327
0 -415 3 -415 13 0 7 83 363 185 792 102 429 193 810 201 848 16 69 29 84 39
45z"/>
<path d="M20917 8123 c-4 -3 -7 -1252 -7 -2775 l0 -2768 515 0 515 0 0 1746
c0 960 4 1743 8 1740 4 -2 370 -788 812 -1745 l805 -1741 513 0 512 0 -2 2773
-3 2772 -507 3 -508 2 -2 -1742 c-2 -1155 -6 -1743 -13 -1742 -5 1 -372 784
-815 1740 l-805 1739 -506 3 c-278 1 -509 -1 -512 -5z"/>
<path d="M25297 8123 c-4 -3 -7 -1252 -7 -2775 l0 -2768 515 0 515 0 0 1746
c0 960 4 1743 8 1740 4 -2 370 -788 812 -1745 l805 -1741 513 0 512 0 -2 2773
-3 2772 -507 3 -508 2 -2 -1742 c-2 -1155 -6 -1743 -13 -1742 -5 1 -372 784
-815 1740 l-805 1739 -506 3 c-278 1 -509 -1 -512 -5z"/>
<path d="M29677 8123 c-4 -3 -7 -1252 -7 -2775 l0 -2768 1445 0 1445 0 0 495
0 495 -930 0 -930 0 0 690 0 690 775 0 775 0 0 495 0 495 -775 0 -775 0 0 595
0 595 928 2 927 3 3 498 2 497 -1438 0 c-791 0 -1442 -3 -1445 -7z"/>
<path d="M33137 8124 c-4 -4 -7 -1253 -7 -2776 l0 -2768 515 0 515 0 0 1060 0
1060 328 0 c367 0 423 -7 543 -71 85 -46 182 -151 230 -253 80 -167 99 -317
99 -771 0 -498 46 -818 136 -955 51 -77 -9 -70 583 -70 l531 0 0 36 c0 27 -9
46 -36 77 -77 90 -131 248 -169 497 -12 76 -19 219 -25 515 -9 445 -18 542
-70 742 -60 225 -157 400 -298 534 -87 84 -206 162 -312 205 -39 16 -70 32
-70 35 0 4 30 25 68 47 271 163 481 432 567 727 46 160 59 263 59 480 0 293
-36 500 -128 726 -177 439 -554 756 -1035 870 -207 50 -243 52 -1156 56 -473
3 -863 1 -868 -3z m1702 -1009 c225 -53 387 -239 447 -511 24 -111 24 -332 0
-439 -42 -187 -145 -329 -289 -400 -118 -58 -172 -65 -524 -65 l-313 0 0 715
0 715 308 0 c238 0 321 -4 371 -15z"/>
<path d="M1840 5349 l0 -1910 403 3 c453 4 453 4 620 90 234 121 443 435 531
798 58 242 61 286 61 1010 0 711 -3 771 -51 989 -47 210 -115 376 -220 532
-142 214 -313 340 -523 384 -57 12 -151 15 -447 15 l-374 0 0 -1911z"/>
</g>
</svg>
